<?xml version="1.0" standalone="no"?><!DOCTYPE svg PUBLIC "-//W3C//DTD SVG 1.1//EN" "http://www.w3.org/Graphics/SVG/1.1/DTD/svg11.dtd"><svg t="1765770743106" class="icon" viewBox="0 0 1024 1024" version="1.1" xmlns="http://www.w3.org/2000/svg" p-id="63347" xmlns:xlink="http://www.w3.org/1999/xlink" width="200" height="200"><path d="M352 230.4l-32 96h64z" fill="#AE9AE2" p-id="63348"></path><path d="M953.6 0H76.8c-38.4 0-76.8 32-76.8 76.8v870.4c0 38.4 32 76.8 76.8 76.8h870.4c38.4 0 76.8-32 76.8-76.8v-870.4c0-38.4-32-76.8-70.4-76.8z m-614.4 198.4h25.6l76.8 204.8h-32l-19.2-57.6h-83.2l-19.2 57.6h-32l83.2-204.8z m518.4 569.6h-665.6v-89.6h665.6v89.6z m0-179.2h-665.6v-89.6h665.6v89.6z m0-179.2h-313.6v-89.6h313.6v89.6z" fill="#AE9AE2" p-id="63349"></path></svg>