<?xml version="1.0" standalone="no"?><!DOCTYPE svg PUBLIC "-//W3C//DTD SVG 1.1//EN" "http://www.w3.org/Graphics/SVG/1.1/DTD/svg11.dtd"><svg t="1765770762246" class="icon" viewBox="0 0 1024 1024" version="1.1" xmlns="http://www.w3.org/2000/svg" p-id="63784" xmlns:xlink="http://www.w3.org/1999/xlink" width="200" height="200"><path d="M953.6 0H76.8c-38.4 0-76.8 32-76.8 76.8v870.4c0 38.4 32 76.8 76.8 76.8h870.4c38.4 0 76.8-32 76.8-76.8v-870.4c0-38.4-32-76.8-70.4-76.8z m-192 537.6c0 12.8-12.8 19.2-19.2 19.2h-384v198.4c0 12.8-12.8 19.2-19.2 19.2h-44.8c-12.8 0-19.2-12.8-19.2-19.2v-492.8c0-12.8 12.8-19.2 19.2-19.2h454.4c12.8 0 19.2 12.8 19.2 19.2v275.2z" fill="#F36666" p-id="63785"></path><path d="M352 332.8h320v134.4h-320z" fill="#F36666" p-id="63786"></path></svg>