<?xml version="1.0" standalone="no"?><!DOCTYPE svg PUBLIC "-//W3C//DTD SVG 1.1//EN" "http://www.w3.org/Graphics/SVG/1.1/DTD/svg11.dtd"><svg t="1765770748470" class="icon" viewBox="0 0 1024 1024" version="1.1" xmlns="http://www.w3.org/2000/svg" p-id="63493" xmlns:xlink="http://www.w3.org/1999/xlink" width="200" height="200"><path d="M480 192c-6.4 51.2-6.4 96 6.4 147.2 19.2-44.8 25.6-102.4-6.4-147.2zM217.6 819.2c38.4-25.6 70.4-70.4 96-115.2-38.4 32-76.8 70.4-96 115.2zM480 473.6c-19.2 57.6-51.2 108.8-76.8 166.4 57.6-19.2 115.2-38.4 172.8-51.2-38.4-32-70.4-70.4-96-115.2zM710.4 608c38.4 19.2 83.2 38.4 128 25.6-38.4-32-89.6-25.6-128-25.6z" fill="#F36666" p-id="63494"></path><path d="M953.6 0H76.8c-38.4 0-76.8 32-76.8 76.8v870.4c0 38.4 32 76.8 76.8 76.8h870.4c38.4 0 76.8-32 76.8-76.8v-870.4c0-38.4-32-76.8-70.4-76.8z m-140.8 678.4c-64 6.4-128-32-185.6-51.2-83.2 6.4-160 32-243.2 51.2-38.4 57.6-70.4 121.6-128 160-25.6 25.6-96 6.4-76.8-38.4 25.6-57.6 89.6-96 140.8-121.6 12.8-6.4 25.6-25.6 32-38.4 38.4-70.4 76.8-140.8 102.4-217.6-12.8-70.4-38.4-140.8-25.6-211.2 6.4-32 44.8-38.4 70.4-25.6 12.8 12.8 25.6 25.6 25.6 44.8 0 51.2-6.4 108.8-12.8 160-6.4 25.6 12.8 44.8 19.2 70.4 25.6 51.2 64 96 115.2 121.6 57.6-6.4 121.6-19.2 179.2 0 38.4 12.8 32 96-12.8 96z" fill="#F36666" p-id="63495"></path></svg>