<?xml version="1.0" standalone="no"?><!DOCTYPE svg PUBLIC "-//W3C//DTD SVG 1.1//EN" "http://www.w3.org/Graphics/SVG/1.1/DTD/svg11.dtd"><svg t="1765770980023" class="icon" viewBox="0 0 1024 1024" version="1.1" xmlns="http://www.w3.org/2000/svg" p-id="64511" xmlns:xlink="http://www.w3.org/1999/xlink" width="200" height="200"><path d="M947.2 0H76.8C38.4 0 0 32 0 76.8v870.4c0 38.4 32 76.8 76.8 76.8h870.4c38.4 0 76.8-32 76.8-76.8V76.8c0-44.8-32-76.8-76.8-76.8z m-185.6 633.6c0 57.6-70.4 108.8-121.6 108.8s-83.2-51.2-70.4-108.8c12.8-57.6 57.6-108.8 108.8-108.8h6.4V275.2l-294.4 51.2v371.2c0 57.6-64 108.8-115.2 108.8s-83.2-51.2-70.4-115.2c12.8-57.6 57.6-108.8 108.8-108.8H320V300.8c0-19.2 12.8-32 25.6-32l377.6-64c12.8 0 19.2 0 25.6 6.4 6.4 6.4 12.8 12.8 12.8 25.6v396.8z" fill="#859DD5" p-id="64512"></path></svg>