<?xml version="1.0" standalone="no"?><!DOCTYPE svg PUBLIC "-//W3C//DTD SVG 1.1//EN" "http://www.w3.org/Graphics/SVG/1.1/DTD/svg11.dtd"><svg t="1765770734378" class="icon" viewBox="0 0 1024 1024" version="1.1" xmlns="http://www.w3.org/2000/svg" p-id="63202" xmlns:xlink="http://www.w3.org/1999/xlink" width="200" height="200"><path d="M947.2 0H76.8C38.4 0 0 32 0 76.8v870.4c0 38.4 32 76.8 76.8 76.8h870.4c38.4 0 76.8-32 76.8-76.8V76.8c0-44.8-32-76.8-76.8-76.8zM262.4 582.4c-44.8 0-76.8-32-76.8-70.4s32-76.8 76.8-76.8 76.8 32 76.8 76.8c6.4 38.4-32 70.4-76.8 70.4z m249.6 0c-38.4 0-70.4-32-70.4-70.4S473.6 435.2 512 435.2c44.8 0 76.8 32 76.8 76.8S556.8 582.4 512 582.4z m256 0c-44.8 0-76.8-32-76.8-76.8s32-76.8 76.8-76.8 76.8 32 76.8 76.8-38.4 76.8-76.8 76.8z" fill="#C97943" p-id="63203"></path></svg>