<?xml version="1.0" standalone="no"?><!DOCTYPE svg PUBLIC "-//W3C//DTD SVG 1.1//EN" "http://www.w3.org/Graphics/SVG/1.1/DTD/svg11.dtd"><svg t="1765770781344" class="icon" viewBox="0 0 1024 1024" version="1.1" xmlns="http://www.w3.org/2000/svg" p-id="64075" xmlns:xlink="http://www.w3.org/1999/xlink" width="200" height="200"><path d="M947.2 0H76.8C38.4 0 0 32 0 76.8v870.4c0 38.4 32 76.8 76.8 76.8h870.4c38.4 0 76.8-32 76.8-76.8V76.8c0-44.8-32-76.8-76.8-76.8zM339.2 243.2c44.8 0 76.8 32 76.8 76.8S384 396.8 339.2 396.8 262.4 364.8 262.4 320s32-76.8 76.8-76.8z m467.2 512H243.2c-25.6 0-32-19.2-19.2-38.4l108.8-172.8c12.8-19.2 38.4-25.6 64-12.8l76.8 44.8c19.2 12.8 51.2 6.4 64-12.8l115.2-172.8c12.8-19.2 32-19.2 44.8 6.4l147.2 320c0 19.2-12.8 38.4-38.4 38.4z" fill="#D1469C" p-id="64076"></path></svg>