<?xml version="1.0" standalone="no"?><!DOCTYPE svg PUBLIC "-//W3C//DTD SVG 1.1//EN" "http://www.w3.org/Graphics/SVG/1.1/DTD/svg11.dtd"><svg t="1765770754363" class="icon" viewBox="0 0 1024 1024" version="1.1" xmlns="http://www.w3.org/2000/svg" p-id="63639" xmlns:xlink="http://www.w3.org/1999/xlink" width="200" height="200"><path d="M953.6 0H76.8c-38.4 0-76.8 32-76.8 76.8v870.4c0 38.4 32 76.8 76.8 76.8h870.4c38.4 0 76.8-32 76.8-76.8v-870.4c0-38.4-32-76.8-70.4-76.8z m-192 748.8c0 6.4-6.4 6.4-6.4 6.4h-76.8-6.4l-147.2-147.2c-6.4-6.4-6.4-6.4-12.8 0l-147.2 147.2h-83.2c-6.4 0-6.4-6.4-6.4-6.4V275.2c0-6.4 6.4-6.4 6.4-6.4h70.4c6.4 0 6.4 6.4 6.4 6.4v339.2c0 6.4 6.4 12.8 12.8 6.4l134.4-134.4c6.4-6.4 6.4-6.4 12.8 0l134.4 134.4c6.4 6.4 12.8 0 12.8-6.4V275.2c0-6.4 6.4-6.4 6.4-6.4h70.4c6.4 0 6.4 6.4 6.4 6.4v473.6z" fill="#529FFF" p-id="63640"></path></svg>