<?xml version="1.0" standalone="no"?><!DOCTYPE svg PUBLIC "-//W3C//DTD SVG 1.1//EN" "http://www.w3.org/Graphics/SVG/1.1/DTD/svg11.dtd"><svg t="1765770772793" class="icon" viewBox="0 0 1024 1024" version="1.1" xmlns="http://www.w3.org/2000/svg" p-id="63930" xmlns:xlink="http://www.w3.org/1999/xlink" width="200" height="200"><path d="M953.6 0H76.8c-38.4 0-76.8 32-76.8 76.8v870.4c0 38.4 32 76.8 76.8 76.8h870.4c38.4 0 76.8-32 76.8-76.8v-870.4c0-38.4-32-76.8-70.4-76.8z m-192 742.4c6.4 6.4 0 12.8-6.4 12.8h-89.6s-6.4 0-6.4-6.4l-140.8-172.8-140.8 172.8-6.4 6.4h-89.6c-6.4 0-12.8-6.4-6.4-12.8l192-230.4-192-230.4c-6.4-6.4 0-12.8 6.4-12.8h89.6s6.4 0 6.4 6.4l140.8 172.8 140.8-172.8 6.4-6.4h89.6c6.4 0 12.8 6.4 6.4 12.8l-192 230.4 192 230.4z" fill="#7DCCAC" p-id="63931"></path></svg>