<?xml version="1.0" standalone="no"?><!DOCTYPE svg PUBLIC "-//W3C//DTD SVG 1.1//EN" "http://www.w3.org/Graphics/SVG/1.1/DTD/svg11.dtd"><svg t="1765770787998" class="icon" viewBox="0 0 1024 1024" version="1.1" xmlns="http://www.w3.org/2000/svg" p-id="64220" xmlns:xlink="http://www.w3.org/1999/xlink" width="200" height="200"><path d="M947.2 0H76.8C38.4 0 0 32 0 76.8v870.4c0 38.4 32 76.8 76.8 76.8h870.4c38.4 0 76.8-32 76.8-76.8V76.8c0-44.8-32-76.8-76.8-76.8zM256 870.4H121.6v-128H256v128zM256 576H121.6V448H256v128z m0-288H121.6v-128H256v128z m390.4 243.2l-211.2 128c-6.4 0-12.8 6.4-19.2 6.4-6.4 0-12.8 0-19.2-6.4-6.4-6.4-12.8-19.2-12.8-32V396.8c0-12.8 6.4-25.6 19.2-25.6 12.8-6.4 25.6-6.4 32 0L640 486.4c12.8 6.4 19.2 19.2 19.2 25.6 0 6.4 0 12.8-12.8 19.2z m262.4 339.2h-134.4v-128h134.4v128z m0-294.4h-134.4V448h134.4v128z m0-288h-134.4v-128h134.4v128z" fill="#EFC756" p-id="64221"></path></svg>