<?xml version="1.0" standalone="no"?><!DOCTYPE svg PUBLIC "-//W3C//DTD SVG 1.1//EN" "http://www.w3.org/Graphics/SVG/1.1/DTD/svg11.dtd"><svg t="1765770801006" class="icon" viewBox="0 0 1036 1024" version="1.1" xmlns="http://www.w3.org/2000/svg" p-id="64365" xmlns:xlink="http://www.w3.org/1999/xlink" width="202.34375" height="200"><path d="M332.8 633.6h115.2v51.2h-115.2z" fill="#EFCE4A" p-id="64366"></path><path d="M953.6 0h-556.8v89.6h89.6v89.6h-89.6v89.6h89.6v89.6h-89.6v89.6h89.6v256c0 12.8-12.8 19.2-19.2 19.2h-134.4c-12.8 0-19.2-12.8-19.2-19.2v-166.4h89.6v-89.6h-89.6v-89.6h89.6v-89.6h-89.6v-89.6h89.6v-89.6h-89.6v-89.6h-224c-38.4 0-76.8 32-76.8 76.8v870.4c0 38.4 32 76.8 76.8 76.8h870.4c38.4 0 76.8-32 76.8-76.8v-870.4c-12.8-38.4-44.8-76.8-83.2-76.8z" fill="#EFCE4A" p-id="64367"></path></svg>